999
"DXF R12 Output" (www.mydxf.blogspot.com)
 0 
SECTION
 2 
HEADER
 9 
$ACADVER
 1 
AC1009
 9 
$EXTMIN
 10 
 0 
 20 
 0 
 9 
$EXTMAX
 10 
 8.5 
 20 
 11 
 0 
ENDSEC
 0 
SECTION
 2 
ENTITIES
0
LINE
8
Layer 1
10
0.846666
20
317.647000
11
-0.846666
21
315.953000
0
LINE
8
Layer 1
10
0.000000
20
318.211000
11
0.000000
21
315.389000
0
LINE
8
Layer 1
10
2.257780
20
315.671000
11
1.128890
21
314.542110
0
LINE
8
Layer 1
10
1.693330
20
316.236000
11
0.564440
21
315.107110
0
LINE
8
Layer 1
10
1.128890
20
316.800000
11
0.000000
21
315.671110
0
LINE
8
0
10
69.918000
20
72.072100
11
69.690730
21
72.927180
0
LINE
8
0
10
69.690730
20
72.927180
11
69.065862
21
73.553562
0
LINE
8
0
10
69.065862
20
73.553562
11
68.211335
21
73.782901
0
LINE
8
0
10
68.211335
20
73.782901
11
67.356808
21
73.553562
0
LINE
8
0
10
67.356808
20
73.553562
11
66.731940
21
72.927180
0
LINE
8
0
10
66.731940
20
72.927180
11
66.504670
21
72.072100
0
LINE
8
0
10
66.504670
20
72.072100
11
66.731940
21
71.217020
0
LINE
8
0
10
66.731940
20
71.217020
11
67.356808
21
70.590638
0
LINE
8
0
10
67.356808
20
70.590638
11
68.211335
21
70.361299
0
LINE
8
0
10
68.211335
20
70.361299
11
69.065862
21
70.590638
0
LINE
8
0
10
69.065862
20
70.590638
11
69.690730
21
71.217020
0
LINE
8
0
10
69.690730
20
71.217020
11
69.918000
21
72.072100
0
LINE
8
0
10
69.918000
20
72.072100
11
69.918000
21
72.072100
0
LINE
8
0
10
74.233500
20
64.627400
11
74.006230
21
65.482480
0
LINE
8
0
10
74.006230
20
65.482480
11
73.381362
21
66.108862
0
LINE
8
0
10
73.381362
20
66.108862
11
72.526835
21
66.338201
0
LINE
8
0
10
72.526835
20
66.338201
11
71.672308
21
66.108862
0
LINE
8
0
10
71.672308
20
66.108862
11
71.047440
21
65.482480
0
LINE
8
0
10
71.047440
20
65.482480
11
70.820170
21
64.627400
0
LINE
8
0
10
70.820170
20
64.627400
11
71.047440
21
63.772320
0
LINE
8
0
10
71.047440
20
63.772320
11
71.672308
21
63.145938
0
LINE
8
0
10
71.672308
20
63.145938
11
72.526835
21
62.916599
0
LINE
8
0
10
72.526835
20
62.916599
11
73.381362
21
63.145938
0
LINE
8
0
10
73.381362
20
63.145938
11
74.006230
21
63.772320
0
LINE
8
0
10
74.006230
20
63.772320
11
74.233500
21
64.627400
0
LINE
8
0
10
74.233500
20
64.627400
11
74.233500
21
64.627400
0
LINE
8
0
10
68.415600
20
80.545100
11
68.188330
21
81.400180
0
LINE
8
0
10
68.188330
20
81.400180
11
67.563462
21
82.026562
0
LINE
8
0
10
67.563462
20
82.026562
11
66.708935
21
82.255901
0
LINE
8
0
10
66.708935
20
82.255901
11
65.854408
21
82.026562
0
LINE
8
0
10
65.854408
20
82.026562
11
65.229540
21
81.400180
0
LINE
8
0
10
65.229540
20
81.400180
11
65.002270
21
80.545100
0
LINE
8
0
10
65.002270
20
80.545100
11
65.229540
21
79.690020
0
LINE
8
0
10
65.229540
20
79.690020
11
65.854408
21
79.063638
0
LINE
8
0
10
65.854408
20
79.063638
11
66.708935
21
78.834299
0
LINE
8
0
10
66.708935
20
78.834299
11
67.563462
21
79.063638
0
LINE
8
0
10
67.563462
20
79.063638
11
68.188330
21
79.690020
0
LINE
8
0
10
68.188330
20
79.690020
11
68.415600
21
80.545100
0
LINE
8
0
10
68.415600
20
80.545100
11
68.415600
21
80.545100
0
LINE
8
0
10
69.908200
20
89.019700
11
69.680930
21
89.874780
0
LINE
8
0
10
69.680930
20
89.874780
11
69.056062
21
90.501162
0
LINE
8
0
10
69.056062
20
90.501162
11
68.201535
21
90.730501
0
LINE
8
0
10
68.201535
20
90.730501
11
67.347008
21
90.501162
0
LINE
8
0
10
67.347008
20
90.501162
11
66.722140
21
89.874780
0
LINE
8
0
10
66.722140
20
89.874780
11
66.494870
21
89.019700
0
LINE
8
0
10
66.494870
20
89.019700
11
66.722140
21
88.164620
0
LINE
8
0
10
66.722140
20
88.164620
11
67.347008
21
87.538238
0
LINE
8
0
10
67.347008
20
87.538238
11
68.201535
21
87.308899
0
LINE
8
0
10
68.201535
20
87.308899
11
69.056062
21
87.538238
0
LINE
8
0
10
69.056062
20
87.538238
11
69.680930
21
88.164620
0
LINE
8
0
10
69.680930
20
88.164620
11
69.908200
21
89.019700
0
LINE
8
0
10
69.908200
20
89.019700
11
69.908200
21
89.019700
0
LINE
8
0
10
74.215100
20
96.469500
11
73.987830
21
97.324580
0
LINE
8
0
10
73.987830
20
97.324580
11
73.362962
21
97.950962
0
LINE
8
0
10
73.362962
20
97.950962
11
72.508435
21
98.180301
0
LINE
8
0
10
72.508435
20
98.180301
11
71.653908
21
97.950962
0
LINE
8
0
10
71.653908
20
97.950962
11
71.029040
21
97.324580
0
LINE
8
0
10
71.029040
20
97.324580
11
70.801770
21
96.469500
0
LINE
8
0
10
70.801770
20
96.469500
11
71.029040
21
95.614420
0
LINE
8
0
10
71.029040
20
95.614420
11
71.653908
21
94.988038
0
LINE
8
0
10
71.653908
20
94.988038
11
72.508435
21
94.758699
0
LINE
8
0
10
72.508435
20
94.758699
11
73.362962
21
94.988038
0
LINE
8
0
10
73.362962
20
94.988038
11
73.987830
21
95.614420
0
LINE
8
0
10
73.987830
20
95.614420
11
74.215100
21
96.469500
0
LINE
8
0
10
74.215100
20
96.469500
11
74.215100
21
96.469500
0
LINE
8
0
10
80.814500
20
101.992000
11
80.587230
21
102.847080
0
LINE
8
0
10
80.587230
20
102.847080
11
79.962362
21
103.473462
0
LINE
8
0
10
79.962362
20
103.473462
11
79.107835
21
103.702801
0
LINE
8
0
10
79.107835
20
103.702801
11
78.253308
21
103.473462
0
LINE
8
0
10
78.253308
20
103.473462
11
77.628440
21
102.847080
0
LINE
8
0
10
77.628440
20
102.847080
11
77.401170
21
101.992000
0
LINE
8
0
10
77.401170
20
101.992000
11
77.628440
21
101.136920
0
LINE
8
0
10
77.628440
20
101.136920
11
78.253308
21
100.510538
0
LINE
8
0
10
78.253308
20
100.510538
11
79.107835
21
100.281199
0
LINE
8
0
10
79.107835
20
100.281199
11
79.962362
21
100.510538
0
LINE
8
0
10
79.962362
20
100.510538
11
80.587230
21
101.136920
0
LINE
8
0
10
80.587230
20
101.136920
11
80.814500
21
101.992000
0
LINE
8
0
10
80.814500
20
101.992000
11
80.814500
21
101.992000
0
LINE
8
0
10
80.839200
20
59.112700
11
80.611930
21
59.967780
0
LINE
8
0
10
80.611930
20
59.967780
11
79.987062
21
60.594162
0
LINE
8
0
10
79.987062
20
60.594162
11
79.132535
21
60.823501
0
LINE
8
0
10
79.132535
20
60.823501
11
78.278008
21
60.594162
0
LINE
8
0
10
78.278008
20
60.594162
11
77.653140
21
59.967780
0
LINE
8
0
10
77.653140
20
59.967780
11
77.425870
21
59.112700
0
LINE
8
0
10
77.425870
20
59.112700
11
77.653140
21
58.257620
0
LINE
8
0
10
77.653140
20
58.257620
11
78.278008
21
57.631238
0
LINE
8
0
10
78.278008
20
57.631238
11
79.132535
21
57.401899
0
LINE
8
0
10
79.132535
20
57.401899
11
79.987062
21
57.631238
0
LINE
8
0
10
79.987062
20
57.631238
11
80.611930
21
58.257620
0
LINE
8
0
10
80.611930
20
58.257620
11
80.839200
21
59.112700
0
LINE
8
0
10
80.839200
20
59.112700
11
80.839200
21
59.112700
0
LINE
8
0
10
105.438000
20
59.112700
11
105.210730
21
59.967780
0
LINE
8
0
10
105.210730
20
59.967780
11
104.585862
21
60.594162
0
LINE
8
0
10
104.585862
20
60.594162
11
103.731335
21
60.823501
0
LINE
8
0
10
103.731335
20
60.823501
11
102.876808
21
60.594162
0
LINE
8
0
10
102.876808
20
60.594162
11
102.251940
21
59.967780
0
LINE
8
0
10
102.251940
20
59.967780
11
102.024670
21
59.112700
0
LINE
8
0
10
102.024670
20
59.112700
11
102.251940
21
58.257620
0
LINE
8
0
10
102.251940
20
58.257620
11
102.876808
21
57.631238
0
LINE
8
0
10
102.876808
20
57.631238
11
103.731335
21
57.401899
0
LINE
8
0
10
103.731335
20
57.401899
11
104.585862
21
57.631238
0
LINE
8
0
10
104.585862
20
57.631238
11
105.210730
21
58.257620
0
LINE
8
0
10
105.210730
20
58.257620
11
105.438000
21
59.112700
0
LINE
8
0
10
105.438000
20
59.112700
11
105.438000
21
59.112700
0
LINE
8
0
10
112.062000
20
96.469500
11
111.834730
21
97.324580
0
LINE
8
0
10
111.834730
20
97.324580
11
111.209862
21
97.950962
0
LINE
8
0
10
111.209862
20
97.950962
11
110.355335
21
98.180301
0
LINE
8
0
10
110.355335
20
98.180301
11
109.500808
21
97.950962
0
LINE
8
0
10
109.500808
20
97.950962
11
108.875940
21
97.324580
0
LINE
8
0
10
108.875940
20
97.324580
11
108.648670
21
96.469500
0
LINE
8
0
10
108.648670
20
96.469500
11
108.875940
21
95.614420
0
LINE
8
0
10
108.875940
20
95.614420
11
109.500808
21
94.988038
0
LINE
8
0
10
109.500808
20
94.988038
11
110.355335
21
94.758699
0
LINE
8
0
10
110.355335
20
94.758699
11
111.209862
21
94.988038
0
LINE
8
0
10
111.209862
20
94.988038
11
111.834730
21
95.614420
0
LINE
8
0
10
111.834730
20
95.614420
11
112.062000
21
96.469500
0
LINE
8
0
10
112.062000
20
96.469500
11
112.062000
21
96.469500
0
LINE
8
0
10
116.369000
20
89.019700
11
116.141730
21
89.874780
0
LINE
8
0
10
116.141730
20
89.874780
11
115.516862
21
90.501162
0
LINE
8
0
10
115.516862
20
90.501162
11
114.662335
21
90.730501
0
LINE
8
0
10
114.662335
20
90.730501
11
113.807808
21
90.501162
0
LINE
8
0
10
113.807808
20
90.501162
11
113.182940
21
89.874780
0
LINE
8
0
10
113.182940
20
89.874780
11
112.955670
21
89.019700
0
LINE
8
0
10
112.955670
20
89.019700
11
113.182940
21
88.164620
0
LINE
8
0
10
113.182940
20
88.164620
11
113.807808
21
87.538238
0
LINE
8
0
10
113.807808
20
87.538238
11
114.662335
21
87.308899
0
LINE
8
0
10
114.662335
20
87.308899
11
115.516862
21
87.538238
0
LINE
8
0
10
115.516862
20
87.538238
11
116.141730
21
88.164620
0
LINE
8
0
10
116.141730
20
88.164620
11
116.369000
21
89.019700
0
LINE
8
0
10
116.369000
20
89.019700
11
116.369000
21
89.019700
0
LINE
8
0
10
117.862000
20
80.545100
11
117.634730
21
81.400180
0
LINE
8
0
10
117.634730
20
81.400180
11
117.009862
21
82.026562
0
LINE
8
0
10
117.009862
20
82.026562
11
116.155335
21
82.255901
0
LINE
8
0
10
116.155335
20
82.255901
11
115.300808
21
82.026562
0
LINE
8
0
10
115.300808
20
82.026562
11
114.675940
21
81.400180
0
LINE
8
0
10
114.675940
20
81.400180
11
114.448670
21
80.545100
0
LINE
8
0
10
114.448670
20
80.545100
11
114.675940
21
79.690020
0
LINE
8
0
10
114.675940
20
79.690020
11
115.300808
21
79.063638
0
LINE
8
0
10
115.300808
20
79.063638
11
116.155335
21
78.834299
0
LINE
8
0
10
116.155335
20
78.834299
11
117.009862
21
79.063638
0
LINE
8
0
10
117.009862
20
79.063638
11
117.634730
21
79.690020
0
LINE
8
0
10
117.634730
20
79.690020
11
117.862000
21
80.545100
0
LINE
8
0
10
117.862000
20
80.545100
11
117.862000
21
80.545100
0
LINE
8
0
10
116.359000
20
72.072100
11
116.131730
21
72.927180
0
LINE
8
0
10
116.131730
20
72.927180
11
115.506862
21
73.553562
0
LINE
8
0
10
115.506862
20
73.553562
11
114.652335
21
73.782901
0
LINE
8
0
10
114.652335
20
73.782901
11
113.797808
21
73.553562
0
LINE
8
0
10
113.797808
20
73.553562
11
113.172940
21
72.927180
0
LINE
8
0
10
113.172940
20
72.927180
11
112.945670
21
72.072100
0
LINE
8
0
10
112.945670
20
72.072100
11
113.172940
21
71.217020
0
LINE
8
0
10
113.172940
20
71.217020
11
113.797808
21
70.590638
0
LINE
8
0
10
113.797808
20
70.590638
11
114.652335
21
70.361299
0
LINE
8
0
10
114.652335
20
70.361299
11
115.506862
21
70.590638
0
LINE
8
0
10
115.506862
20
70.590638
11
116.131730
21
71.217020
0
LINE
8
0
10
116.131730
20
71.217020
11
116.359000
21
72.072100
0
LINE
8
0
10
116.359000
20
72.072100
11
116.359000
21
72.072100
0
LINE
8
0
10
112.044000
20
64.627400
11
111.816730
21
65.482480
0
LINE
8
0
10
111.816730
20
65.482480
11
111.191862
21
66.108862
0
LINE
8
0
10
111.191862
20
66.108862
11
110.337335
21
66.338201
0
LINE
8
0
10
110.337335
20
66.338201
11
109.482808
21
66.108862
0
LINE
8
0
10
109.482808
20
66.108862
11
108.857940
21
65.482480
0
LINE
8
0
10
108.857940
20
65.482480
11
108.630670
21
64.627400
0
LINE
8
0
10
108.630670
20
64.627400
11
108.857940
21
63.772320
0
LINE
8
0
10
108.857940
20
63.772320
11
109.482808
21
63.145938
0
LINE
8
0
10
109.482808
20
63.145938
11
110.337335
21
62.916599
0
LINE
8
0
10
110.337335
20
62.916599
11
111.191862
21
63.145938
0
LINE
8
0
10
111.191862
20
63.145938
11
111.816730
21
63.772320
0
LINE
8
0
10
111.816730
20
63.772320
11
112.044000
21
64.627400
0
LINE
8
0
10
112.044000
20
64.627400
11
112.044000
21
64.627400
0
LINE
8
0
10
105.463000
20
101.992000
11
105.235730
21
102.847080
0
LINE
8
0
10
105.235730
20
102.847080
11
104.610862
21
103.473462
0
LINE
8
0
10
104.610862
20
103.473462
11
103.756335
21
103.702801
0
LINE
8
0
10
103.756335
20
103.702801
11
102.901808
21
103.473462
0
LINE
8
0
10
102.901808
20
103.473462
11
102.276940
21
102.847080
0
LINE
8
0
10
102.276940
20
102.847080
11
102.049670
21
101.992000
0
LINE
8
0
10
102.049670
20
101.992000
11
102.276940
21
101.136920
0
LINE
8
0
10
102.276940
20
101.136920
11
102.901808
21
100.510538
0
LINE
8
0
10
102.901808
20
100.510538
11
103.756335
21
100.281199
0
LINE
8
0
10
103.756335
20
100.281199
11
104.610862
21
100.510538
0
LINE
8
0
10
104.610862
20
100.510538
11
105.235730
21
101.136920
0
LINE
8
0
10
105.235730
20
101.136920
11
105.463000
21
101.992000
0
LINE
8
0
10
105.463000
20
101.992000
11
105.463000
21
101.992000
0
LINE
8
0
10
150.099000
20
131.759000
11
146.546921
21
128.559000
0
LINE
8
0
10
146.546921
20
128.559000
11
143.224008
21
125.359000
0
LINE
8
0
10
143.224008
20
125.359000
11
140.130261
21
122.159000
0
LINE
8
0
10
140.130261
20
122.159000
11
137.265681
21
118.959000
0
LINE
8
0
10
137.265681
20
118.959000
11
134.630268
21
115.759000
0
LINE
8
0
10
134.630268
20
115.759000
11
132.224020
21
112.559000
0
LINE
8
0
10
132.224020
20
112.559000
11
130.046939
21
109.359000
0
LINE
8
0
10
130.046939
20
109.359000
11
128.099025
21
106.159000
0
LINE
8
0
10
128.099025
20
106.159000
11
126.380277
21
102.959000
0
LINE
8
0
10
126.380277
20
102.959000
11
124.890695
21
99.759000
0
LINE
8
0
10
124.890695
20
99.759000
11
123.630280
21
96.559000
0
LINE
8
0
10
123.630280
20
96.559000
11
122.599031
21
93.359000
0
LINE
8
0
10
122.599031
20
93.359000
11
121.796949
21
90.159000
0
LINE
8
0
10
121.796949
20
90.159000
11
121.224033
21
86.959000
0
LINE
8
0
10
121.224033
20
86.959000
11
120.880283
21
83.759000
0
LINE
8
0
10
120.880283
20
83.759000
11
120.765700
21
80.559000
0
LINE
8
0
10
120.765700
20
80.559000
11
120.880283
21
77.359000
0
LINE
8
0
10
120.880283
20
77.359000
11
121.224033
21
74.159000
0
LINE
8
0
10
121.224033
20
74.159000
11
121.796949
21
70.959000
0
LINE
8
0
10
121.796949
20
70.959000
11
122.599031
21
67.759000
0
LINE
8
0
10
122.599031
20
67.759000
11
123.630280
21
64.559000
0
LINE
8
0
10
123.630280
20
64.559000
11
124.890695
21
61.359000
0
LINE
8
0
10
124.890695
20
61.359000
11
126.380277
21
58.159000
0
LINE
8
0
10
126.380277
20
58.159000
11
128.099025
21
54.959000
0
LINE
8
0
10
128.099025
20
54.959000
11
130.046939
21
51.759000
0
LINE
8
0
10
130.046939
20
51.759000
11
132.224020
21
48.559000
0
LINE
8
0
10
132.224020
20
48.559000
11
134.630268
21
45.359000
0
LINE
8
0
10
134.630268
20
45.359000
11
137.265681
21
42.159000
0
LINE
8
0
10
137.265681
20
42.159000
11
140.130261
21
38.959000
0
LINE
8
0
10
140.130261
20
38.959000
11
143.224008
21
35.759000
0
LINE
8
0
10
143.224008
20
35.759000
11
146.546921
21
32.559000
0
LINE
8
0
10
146.546921
20
32.559000
11
150.099000
21
29.359000
0
LINE
8
0
10
150.099000
20
131.759000
11
153.299000
21
131.759000
0
LINE
8
0
10
153.299000
20
131.759000
11
153.299000
21
142.426000
0
LINE
8
0
10
153.299000
20
142.426000
11
142.632000
21
142.426000
0
LINE
8
0
10
142.632000
20
142.426000
11
142.632000
21
139.226000
0
LINE
8
0
10
40.232100
20
139.226000
11
43.432100
21
135.673921
0
LINE
8
0
10
43.432100
20
135.673921
11
46.632100
21
132.351008
0
LINE
8
0
10
46.632100
20
132.351008
11
49.832100
21
129.257261
0
LINE
8
0
10
49.832100
20
129.257261
11
53.032100
21
126.392681
0
LINE
8
0
10
53.032100
20
126.392681
11
56.232100
21
123.757268
0
LINE
8
0
10
56.232100
20
123.757268
11
59.432100
21
121.351020
0
LINE
8
0
10
59.432100
20
121.351020
11
62.632100
21
119.173939
0
LINE
8
0
10
62.632100
20
119.173939
11
65.832100
21
117.226025
0
LINE
8
0
10
65.832100
20
117.226025
11
69.032100
21
115.507277
0
LINE
8
0
10
69.032100
20
115.507277
11
72.232100
21
114.017695
0
LINE
8
0
10
72.232100
20
114.017695
11
75.432100
21
112.757280
0
LINE
8
0
10
75.432100
20
112.757280
11
78.632100
21
111.726031
0
LINE
8
0
10
78.632100
20
111.726031
11
81.832100
21
110.923949
0
LINE
8
0
10
81.832100
20
110.923949
11
85.032100
21
110.351033
0
LINE
8
0
10
85.032100
20
110.351033
11
88.232100
21
110.007283
0
LINE
8
0
10
88.232100
20
110.007283
11
91.432100
21
109.892700
0
LINE
8
0
10
91.432100
20
109.892700
11
94.632100
21
110.007283
0
LINE
8
0
10
94.632100
20
110.007283
11
97.832100
21
110.351033
0
LINE
8
0
10
97.832100
20
110.351033
11
101.032100
21
110.923949
0
LINE
8
0
10
101.032100
20
110.923949
11
104.232100
21
111.726031
0
LINE
8
0
10
104.232100
20
111.726031
11
107.432100
21
112.757280
0
LINE
8
0
10
107.432100
20
112.757280
11
110.632100
21
114.017695
0
LINE
8
0
10
110.632100
20
114.017695
11
113.832100
21
115.507277
0
LINE
8
0
10
113.832100
20
115.507277
11
117.032100
21
117.226025
0
LINE
8
0
10
117.032100
20
117.226025
11
120.232100
21
119.173939
0
LINE
8
0
10
120.232100
20
119.173939
11
123.432100
21
121.351020
0
LINE
8
0
10
123.432100
20
121.351020
11
126.632100
21
123.757268
0
LINE
8
0
10
126.632100
20
123.757268
11
129.832100
21
126.392681
0
LINE
8
0
10
129.832100
20
126.392681
11
133.032100
21
129.257261
0
LINE
8
0
10
133.032100
20
129.257261
11
136.232100
21
132.351008
0
LINE
8
0
10
136.232100
20
132.351008
11
139.432100
21
135.673921
0
LINE
8
0
10
139.432100
20
135.673921
11
142.632100
21
139.226000
0
LINE
8
0
10
40.232200
20
139.226000
11
40.232200
21
142.426000
0
LINE
8
0
10
40.232200
20
142.426000
11
29.565300
21
142.426000
0
LINE
8
0
10
29.565300
20
142.426000
11
29.565300
21
131.759000
0
LINE
8
0
10
29.565300
20
131.759000
11
32.765400
21
131.759000
0
LINE
8
0
10
32.765400
20
29.359300
11
36.317479
21
32.559300
0
LINE
8
0
10
36.317479
20
32.559300
11
39.640392
21
35.759300
0
LINE
8
0
10
39.640392
20
35.759300
11
42.734139
21
38.959300
0
LINE
8
0
10
42.734139
20
38.959300
11
45.598719
21
42.159300
0
LINE
8
0
10
45.598719
20
42.159300
11
48.234132
21
45.359300
0
LINE
8
0
10
48.234132
20
45.359300
11
50.640380
21
48.559300
0
LINE
8
0
10
50.640380
20
48.559300
11
52.817461
21
51.759300
0
LINE
8
0
10
52.817461
20
51.759300
11
54.765375
21
54.959300
0
LINE
8
0
10
54.765375
20
54.959300
11
56.484123
21
58.159300
0
LINE
8
0
10
56.484123
20
58.159300
11
57.973705
21
61.359300
0
LINE
8
0
10
57.973705
20
61.359300
11
59.234120
21
64.559300
0
LINE
8
0
10
59.234120
20
64.559300
11
60.265369
21
67.759300
0
LINE
8
0
10
60.265369
20
67.759300
11
61.067451
21
70.959300
0
LINE
8
0
10
61.067451
20
70.959300
11
61.640367
21
74.159300
0
LINE
8
0
10
61.640367
20
74.159300
11
61.984117
21
77.359300
0
LINE
8
0
10
61.984117
20
77.359300
11
62.098700
21
80.559300
0
LINE
8
0
10
62.098700
20
80.559300
11
61.984117
21
83.759300
0
LINE
8
0
10
61.984117
20
83.759300
11
61.640367
21
86.959300
0
LINE
8
0
10
61.640367
20
86.959300
11
61.067451
21
90.159300
0
LINE
8
0
10
61.067451
20
90.159300
11
60.265369
21
93.359300
0
LINE
8
0
10
60.265369
20
93.359300
11
59.234120
21
96.559300
0
LINE
8
0
10
59.234120
20
96.559300
11
57.973705
21
99.759300
0
LINE
8
0
10
57.973705
20
99.759300
11
56.484123
21
102.959300
0
LINE
8
0
10
56.484123
20
102.959300
11
54.765375
21
106.159300
0
LINE
8
0
10
54.765375
20
106.159300
11
52.817461
21
109.359300
0
LINE
8
0
10
52.817461
20
109.359300
11
50.640380
21
112.559300
0
LINE
8
0
10
50.640380
20
112.559300
11
48.234132
21
115.759300
0
LINE
8
0
10
48.234132
20
115.759300
11
45.598719
21
118.959300
0
LINE
8
0
10
45.598719
20
118.959300
11
42.734139
21
122.159300
0
LINE
8
0
10
42.734139
20
122.159300
11
39.640392
21
125.359300
0
LINE
8
0
10
39.640392
20
125.359300
11
36.317479
21
128.559300
0
LINE
8
0
10
36.317479
20
128.559300
11
32.765400
21
131.759300
0
LINE
8
0
10
32.765400
20
29.358500
11
29.565300
21
29.358500
0
LINE
8
0
10
29.565300
20
29.358500
11
29.565300
21
18.693300
0
LINE
8
0
10
29.565300
20
18.693300
11
40.232200
21
18.693300
0
LINE
8
0
10
40.232200
20
18.693300
11
40.232200
21
21.893700
0
LINE
8
0
10
142.632000
20
21.892700
11
139.432000
21
25.444779
0
LINE
8
0
10
139.432000
20
25.444779
11
136.232000
21
28.767692
0
LINE
8
0
10
136.232000
20
28.767692
11
133.032000
21
31.861439
0
LINE
8
0
10
133.032000
20
31.861439
11
129.832000
21
34.726019
0
LINE
8
0
10
129.832000
20
34.726019
11
126.632000
21
37.361432
0
LINE
8
0
10
126.632000
20
37.361432
11
123.432000
21
39.767680
0
LINE
8
0
10
123.432000
20
39.767680
11
120.232000
21
41.944761
0
LINE
8
0
10
120.232000
20
41.944761
11
117.032000
21
43.892675
0
LINE
8
0
10
117.032000
20
43.892675
11
113.832000
21
45.611423
0
LINE
8
0
10
113.832000
20
45.611423
11
110.632000
21
47.101005
0
LINE
8
0
10
110.632000
20
47.101005
11
107.432000
21
48.361420
0
LINE
8
0
10
107.432000
20
48.361420
11
104.232000
21
49.392669
0
LINE
8
0
10
104.232000
20
49.392669
11
101.032000
21
50.194751
0
LINE
8
0
10
101.032000
20
50.194751
11
97.832000
21
50.767667
0
LINE
8
0
10
97.832000
20
50.767667
11
94.632000
21
51.111417
0
LINE
8
0
10
94.632000
20
51.111417
11
91.432000
21
51.226000
0
LINE
8
0
10
91.432000
20
51.226000
11
88.232000
21
51.111417
0
LINE
8
0
10
88.232000
20
51.111417
11
85.032000
21
50.767667
0
LINE
8
0
10
85.032000
20
50.767667
11
81.832000
21
50.194751
0
LINE
8
0
10
81.832000
20
50.194751
11
78.632000
21
49.392669
0
LINE
8
0
10
78.632000
20
49.392669
11
75.432000
21
48.361420
0
LINE
8
0
10
75.432000
20
48.361420
11
72.232000
21
47.101005
0
LINE
8
0
10
72.232000
20
47.101005
11
69.032000
21
45.611423
0
LINE
8
0
10
69.032000
20
45.611423
11
65.832000
21
43.892675
0
LINE
8
0
10
65.832000
20
43.892675
11
62.632000
21
41.944761
0
LINE
8
0
10
62.632000
20
41.944761
11
59.432000
21
39.767680
0
LINE
8
0
10
59.432000
20
39.767680
11
56.232000
21
37.361432
0
LINE
8
0
10
56.232000
20
37.361432
11
53.032000
21
34.726019
0
LINE
8
0
10
53.032000
20
34.726019
11
49.832000
21
31.861439
0
LINE
8
0
10
49.832000
20
31.861439
11
46.632000
21
28.767692
0
LINE
8
0
10
46.632000
20
28.767692
11
43.432000
21
25.444779
0
LINE
8
0
10
43.432000
20
25.444779
11
40.232000
21
21.892700
0
LINE
8
0
10
142.632000
20
21.893700
11
142.632000
21
18.693300
0
LINE
8
0
10
142.632000
20
18.693300
11
153.299000
21
18.693300
0
LINE
8
0
10
153.299000
20
18.693300
11
153.299000
21
29.358500
0
LINE
8
0
10
153.299000
20
29.358500
11
150.099000
21
29.358500
 0 
ENDSEC
 0 
EOF